HIERARCHY
ROOT Hips
{
  OFFSET 3.13124 94.3669 -3.18751
  CHANNELS  6 Xposition Yposition Zposition Zrotation Xrotation Yrotation
  JOINT LeftUpLeg
  {
    OFFSET 8.64259 1.95398 -2.38835
    CHANNELS 3 Zrotation Xrotation Yrotation
    JOINT LeftLeg
    {
      OFFSET 43.7702 0 0
      CHANNELS 3 Zrotation Xrotation Yrotation
      JOINT LeftFoot
      {
        OFFSET 40.6238 0 0
        CHANNELS 3 Zrotation Xrotation Yrotation
        JOINT LeftToeBase
        {
          OFFSET 12.7242 0 0
          CHANNELS 3 Zrotation Xrotation Yrotation
          End Site
          {
            OFFSET 0 0 0
          }
        }
      }
    }
  }
  JOINT RightUpLeg
  {
    OFFSET -8.2249 1.95398 -2.59336
    CHANNELS 3 Zrotation Xrotation Yrotation
    JOINT RightLeg
    {
      OFFSET 43.5653 0 0
      CHANNELS 3 Zrotation Xrotation Yrotation
      JOINT RightFoot
      {
        OFFSET 40.6238 0 0
        CHANNELS 3 Zrotation Xrotation Yrotation
        JOINT RightToeBase
        {
          OFFSET 12.7242 0 0
          CHANNELS 3 Zrotation Xrotation Yrotation
          End Site
          {
            OFFSET 0 0 0
          }
        }
      }
    }
  }
  JOINT Spine
  {
    OFFSET 0.165834 0.87714 6.61349
    CHANNELS 3 Zrotation Xrotation Yrotation
    JOINT Spine1
    {
      OFFSET 7.38962 1.71661e-005 0
      CHANNELS 3 Zrotation Xrotation Yrotation
      JOINT Spine2
      {
        OFFSET 11.9445 1.14441e-005 0
        CHANNELS 3 Zrotation Xrotation Yrotation
        JOINT Spine3
        {
          OFFSET 14.7254 4.19617e-005 0
          CHANNELS 3 Zrotation Xrotation Yrotation
          JOINT Spine4
          {
            OFFSET 10.9679 0 0
            CHANNELS 3 Zrotation Xrotation Yrotation
            JOINT RightShoulder
            {
              OFFSET 2.46616 -1.6653 3.69651
              CHANNELS 3 Zrotation Xrotation Yrotation
              JOINT RightArm
              {
                OFFSET 13.0012 0 0
                CHANNELS 3 Zrotation Xrotation Yrotation
                JOINT RightForeArm
                {
                  OFFSET 28.7848 1.52588e-005 0
                  CHANNELS 3 Zrotation Xrotation Yrotation
                  JOINT RightHand
                  {
                    OFFSET 26.5688 1.52588e-005 0
                    CHANNELS 3 Zrotation Xrotation Yrotation
                    End Site
                    {
                      OFFSET 0 0 0
                    }
                  }
                }
              }
            }
            JOINT LeftShoulder
            {
              OFFSET 2.38034 -1.29275 -3.75231
              CHANNELS 3 Zrotation Xrotation Yrotation
              JOINT LeftArm
              {
                OFFSET 16.3182 6.10352e-005 0
                CHANNELS 3 Zrotation Xrotation Yrotation
                JOINT LeftForeArm
                {
                  OFFSET 27.0901 0 0
                  CHANNELS 3 Zrotation Xrotation Yrotation
                  JOINT LeftHand
                  {
                    OFFSET 24.5451 1.52588e-005 0
                    CHANNELS 3 Zrotation Xrotation Yrotation
                    End Site
                    {
                      OFFSET 0 0 0
                    }
                  }
                }
              }
            }
            JOINT Neck
            {
              OFFSET 5.0226 -0.0266342 0
              CHANNELS 3 Zrotation Xrotation Yrotation
              JOINT Head
              {
                OFFSET 6.69363 2.86102e-005 0
                CHANNELS 3 Zrotation Xrotation Yrotation
                End Site
                {
                  OFFSET 0 0 0
                }
              }
            }
          }
        }
      }
    }
  }
}
MOTION
Frames:	12
Frame Time:	0.0333333
6.11784 91.9275 -34.4161 -65.426 -63.2475 -65.3675 179.359 15.4991 99.2635 -55.6074 -37.2972 -2.02936 61.3486 -3.45188 -2.13816 28.7808 5.53739e-006 1.2027e-005 178.023 23.4448 85.3708 -18.4295 -38.4113 -2.25053 60.698 -4.27082 -2.24213 28.7808 1.54857e-005 1.71317e-005 -3.12709 7.02097 -92.3834 12.8442 -7.09635 -2.52118 1.19083 -7.20041 -2.20502 -21.444 -6.01037 -4.54128 -1.43138 -6.0104 -4.5413 125.339 -59.8818 -50.2809 16.5332 19.4431 -50.6561 -1.87711 29.7013 -5.44625 -43.8992 11.83 -34.2747 -91.2548 -9.85523 60.2411 -43.8127 8.40833 -51.5072 27.1737 84.779 -28.2791 40.1021 -5.63109 -18.5834 48.3736 12.569 -16.0021 -45.1324 12.2673 22.9403 
8.26841 91.9073 -33.9504 -66.4521 -62.9302 -68.0092 179.386 17.4752 101.801 -51.7414 -38.2709 -2.21261 57.1153 2.01389 1.04282 28.7808 5.53739e-006 1.2027e-005 177.024 22.6849 82.6815 -16.0116 -39.4074 -2.3072 60.499 -2.87752 -1.38185 28.7808 1.54857e-005 1.71317e-005 -2.82999 7.14535 -92.4354 12.5746 -6.62644 -2.69113 0.918363 -6.73842 -2.39583 -21.6954 -5.51143 -4.56185 -1.68279 -5.51145 -4.56187 125.436 -61.7357 -50.7814 15.1456 20.4842 -47.6071 -0.943376 43.1056 -6.07766 -40.5595 11.5326 -36.2476 -91.1303 -9.41318 60.2253 -43.0593 8.8775 -54.3543 150.233 85.5196 -151.344 40.0845 -7.22033 -22.5907 48.8221 13.0342 -14.5383 -46.0759 11.0819 24.4284 
10.3842 92.1276 -33.0576 -67.2622 -62.8062 -70.8081 -178.881 14.5146 102.983 -39.0165 -41.2713 -2.83686 59.0205 2.20946 1.17465 28.7808 5.53739e-006 1.2027e-005 175.81 21.919 79.4735 -13.6485 -41.1757 -2.42029 59.6657 -1.33722 -0.480153 28.7808 1.54857e-005 1.71317e-005 -2.62602 7.18473 -92.2076 12.4756 -6.17713 -2.79251 0.816931 -6.29403 -2.51715 -21.7794 -5.05266 -4.52137 -1.7668 -5.05268 -4.5214 124.825 -63.4177 -52.1262 14.4423 20.846 -44.2916 0.197975 53.9564 -6.99599 -36.7027 11.344 -38.9742 -91.0096 -8.80928 60.0711 -42.3924 9.28757 -56.8882 172.534 74.6117 -173.653 42.3453 -9.22544 -26.2775 48.048 13.6068 -13.3429 -47.19 10.0153 25.7088 
12.692 92.236 -32.0031 -67.9129 -62.9038 -72.8386 -176.84 11.8777 103.701 -26.9491 -43.2025 -3.28484 56.6479 2.10563 1.09259 28.7808 5.53739e-006 1.2027e-005 173.731 19.1597 77.0251 -6.94501 -42.5745 -2.5054 57.6661 1.66794 1.43281 28.7808 1.54857e-005 1.71317e-005 -2.47364 7.19459 -92.0725 12.432 -5.86503 -2.96922 0.771329 -5.98999 -2.70761 -21.81 -4.70212 -4.5952 -1.79732 -4.70212 -4.5952 123.596 -65.5689 -54.3569 13.6215 21.3522 -42.6056 1.31755 60.9299 -7.97905 -38.3513 9.98038 -33.8069 -90.5902 -7.18227 59.8949 -42.2292 10.0588 -58.971 176.372 62.4661 -177.499 46.1705 -9.85193 -25.7315 46.7138 13.8091 -13.5345 -49.008 8.85079 27.7022 
15.3219 91.9017 -30.7717 -68.8818 -63.1184 -74.4835 -176.225 12.3261 104.49 -23.7493 -37.2236 -2.68951 51.8758 2.94018 1.65214 28.7808 5.53739e-006 1.2027e-005 172.436 18.181 74.6635 -4.51813 -43.2078 -2.54107 57.4959 3.90906 2.79752 28.7808 1.54857e-005 1.71317e-005 -2.35843 7.16996 -92.0329 12.4468 -5.58893 -3.4309 0.784233 -5.73448 -3.18121 -21.7774 -4.30055 -4.95193 -1.76473 -4.30056 -4.95196 121.232 -66.7918 -57.6801 13.3504 21.5438 -42.3531 1.97155 63.9457 -8.57498 -43.9453 8.31363 -25.9438 -90.4773 -6.60533 59.7292 -42.1652 10.4285 -59.9299 177.339 55.6947 -178.472 47.0172 -11.7313 -29.3429 43.7301 15.0604 -11.3702 -49.4468 8.40266 27.9324 
18.1531 91.3551 -29.4657 -70.8221 -64.0818 -76.703 -176.117 13.3139 104.427 -23.9101 -28.1275 -1.84206 49.5851 -1.49584 -1.65657 28.7808 5.53739e-006 1.2027e-005 171.344 17.6844 72.0425 -4.36763 -43.7075 -2.57862 57.878 6.05815 4.14126 28.7808 1.54857e-005 1.71317e-005 -2.31753 7.17233 -91.9599 12.397 -5.43537 -4.06862 0.731665 -5.60906 -3.8253 -21.8086 -3.96323 -5.51262 -1.79598 -3.96323 -5.51266 118.107 -66.9338 -61.6537 15.0228 20.2884 -42.9281 1.42795 61.4846 -8.07838 -43.8264 9.30882 -28.4529 -90.3769 -6.63123 60.0547 -43.0233 10.9207 -58.7397 177.497 54.2691 -178.63 46.5649 -12.0356 -30.2591 40.325 17.2531 -6.69723 -48.7273 9.15983 25.4029 
21.2954 90.7364 -28.2019 -73.441 -66.1979 -79.6182 -176.479 13.7975 102.923 -24.6945 -22.0768 -1.36809 49.3604 -4.28415 -3.73741 28.7808 5.53739e-006 1.2027e-005 169.885 16.7981 68.8298 -4.39089 -44.2218 -2.61973 57.4694 9.15345 6.17663 28.7808 1.54857e-005 1.71317e-005 -2.28468 7.24284 -91.9009 12.2243 -5.33642 -4.5105 0.557245 -5.52961 -4.27126 -21.9634 -3.73671 -5.90339 -1.95075 -3.73671 -5.90343 116.197 -67.7072 -64.2178 14.4437 21.0028 -46.8958 1.58353 62.2325 -8.21967 -50.1447 4.9392 -15.8434 -89.8081 -5.8116 60.9731 -44.0238 10.9772 -56.7981 177.086 57.7659 -178.217 45.3343 -13.0414 -33.2424 39.524 17.7037 -4.36492 -49.7119 8.92637 23.7689 
24.8556 89.8268 -27.1706 -75.3211 -69.2347 -81.5353 -177.771 16.0418 101.3 -31.6754 -17.1455 -0.954653 55.7306 -9.29042 -6.46755 28.7808 5.53739e-006 1.2027e-005 168.392 15.9155 65.6574 -4.3016 -42.145 -2.46332 56.4459 12.4823 8.51291 28.7808 1.54857e-005 1.71317e-005 -2.17939 7.22521 -92.0018 12.2363 -5.22696 -4.95259 0.567147 -5.43964 -4.71792 -21.9351 -3.50017 -6.29122 -1.9225 -3.50018 -6.29126 113.247 -67.8492 -67.9495 16.2143 19.6829 -50.1286 1.03949 59.4435 -7.72898 -48.836 7.45106 -21.7214 -89.5189 -6.025 61.9773 -43.0859 9.46999 -55.6043 176.947 58.8011 -178.077 39.599 -13.5649 -38.6209 38.6582 17.3767 -2.41373 -50.1231 8.01817 22.6159 
28.5985 88.8897 -26.342 -77.234 -72.7824 -83.3673 -178.374 17.0794 99.4019 -35.3241 -11.6472 -0.506035 63.1206 -10.2535 -6.03769 28.7808 5.53739e-006 1.2027e-005 166.784 15.0741 62.4417 -4.25263 -40.8578 -2.37278 53.3063 16.5615 11.9442 28.7808 1.54857e-005 1.71317e-005 -1.92355 7.2252 -92.0984 12.2413 -4.83235 -5.21152 0.569975 -5.05675 -4.99412 -21.9159 -3.04637 -6.41919 -1.90325 -3.04639 -6.4192 111.21 -69.3347 -70.6967 17.0042 19.1526 -53.8413 0.200129 53.975 -6.99734 -47.1122 7.96236 -23.562 -88.7077 -5.39755 63.8257 -41.3807 7.31447 -54.9042 177.84 50.7478 -178.975 48.5893 -12.7505 -30.6251 42.0772 14.8914 -3.796 -53.5712 5.27484 23.1827 
32.2794 88.2087 -25.63 -80.7741 -77.0025 -86.3605 -178.452 16.2177 97.8048 -35.8089 -5.46449 -0.0920128 70.9588 -10.3742 -4.94833 28.7808 5.53739e-006 1.2027e-005 165.152 13.2 59.7962 -4.08463 -35.8582 -2.03753 46.7239 20.1648 16.4429 28.7808 1.54857e-005 1.71317e-005 -1.55118 7.23633 -92.3655 12.2372 -4.28577 -5.49373 0.562348 -4.52307 -5.30026 -21.9013 -2.44062 -6.52407 -1.88862 -2.44062 -6.52409 108.803 -70.2003 -73.762 17.8804 18.448 -58.5926 -0.147528 51.1689 -6.7057 -47.5611 8.40304 -24.3563 -87.9589 -5.63675 66.0654 -38.9005 4.57318 -54.5748 175.961 64.6052 -177.087 32.7601 -13.4653 -44.4127 45.5086 12.291 -3.74796 -55.9668 2.15549 23.1289 
35.8949 87.8965 -25.2307 -83.3733 -82.266 -87.9318 -178.701 16.6448 96.6301 -36.8448 0.467269 0.296996 76.2444 -8.30544 -3.35034 28.7808 5.53739e-006 1.2027e-005 163.854 10.9738 58.1463 -4.07714 -26.7357 -1.49563 36.2122 21.8441 21.4061 28.7808 1.54857e-005 1.71317e-005 -1.04183 7.17375 -93.0933 12.3923 -3.63095 -5.83609 0.714026 -3.88388 -5.67124 -21.7283 -1.7136 -6.65209 -1.71566 -1.71361 -6.65211 104.779 -69.3854 -78.692 19.1498 17.1645 -64.0137 0.140302 53.518 -6.94643 -46.8073 9.37367 -26.9139 -87.4866 -5.40706 67.2825 -34.1304 0.144874 -56.577 177.846 50.6561 -178.982 34.534 -7.38179 -26.2692 48.682 9.86122 -1.90891 -57.2107 -1.36014 22.6737 
38.1987 87.2064 -25.4149 -84.5914 -88.6941 -88.3746 -179.062 19.7903 95.7878 -40.7172 5.02058 0.607528 78.6813 -4.74133 -1.62381 28.7808 5.53739e-006 1.2027e-005 172.005 13.9833 56.3806 -25.0161 -13.3271 -0.845161 35.6771 19.62 19.6408 28.7808 1.54857e-005 1.71317e-005 -0.743801 7.09416 -93.1463 12.5679 -2.97143 -5.95798 0.887167 -3.23033 -5.82201 -21.5431 -1.04786 -6.57452 -1.53049 -1.04788 -6.57454 100.367 -69.1766 -84.1854 20.2808 15.7673 -69.5524 0.259347 54.4177 -7.04755 -46.8462 9.84748 -28.0466 -86.0426 -2.52619 69.6302 -28.6533 -4.42904 -62.4872 178.842 35.1486 -179.99 35.7592 -6.05731 -21.5172 52.4513 6.01595 -2.57394 -57.6015 -5.90382 24.8223 
